solid wedge_40x160x15
  facet normal 0.000000e+00 0.000000e+00 1.000000e+00
    outer loop
      vertex 0.000000e+00 0.000000e+00 0.000000e+00
      vertex 4.000000e+01 0.000000e+00 0.000000e+00
      vertex 4.000000e+01 1.600000e+02 0.000000e+00
    endloop
  endfacet
  facet normal 0.000000e+00 0.000000e+00 1.000000e+00
    outer loop
      vertex 0.000000e+00 0.000000e+00 0.000000e+00
      vertex 4.000000e+01 1.600000e+02 0.000000e+00
      vertex 0.000000e+00 1.600000e+02 0.000000e+00
    endloop
  endfacet
  facet normal 0.000000e+00 -1.000000e+00 0.000000e+00
    outer loop
      vertex 0.000000e+00 1.600000e+02 0.000000e+00
      vertex 4.000000e+01 1.600000e+02 0.000000e+00
      vertex 4.000000e+01 1.600000e+02 1.500000e+01
    endloop
  endfacet
  facet normal 0.000000e+00 -1.000000e+00 0.000000e+00
    outer loop
      vertex 0.000000e+00 1.600000e+02 0.000000e+00
      vertex 4.000000e+01 1.600000e+02 1.500000e+01
      vertex 0.000000e+00 1.600000e+02 1.500000e+01
    endloop
  endfacet
  facet normal 1.000000e+00 0.000000e+00 0.000000e+00
    outer loop
      vertex 0.000000e+00 0.000000e+00 0.000000e+00
      vertex 0.000000e+00 1.600000e+02 0.000000e+00
      vertex 0.000000e+00 1.600000e+02 1.500000e+01
    endloop
  endfacet
  facet normal -1.000000e+00 0.000000e+00 0.000000e+00
    outer loop
      vertex 4.000000e+01 0.000000e+00 0.000000e+00
      vertex 4.000000e+01 1.600000e+02 1.500000e+01
      vertex 4.000000e+01 1.600000e+02 0.000000e+00
    endloop
  endfacet
  facet normal 0.000000e+00 -9.334071e-02 9.956342e-01
    outer loop
      vertex 0.000000e+00 0.000000e+00 0.000000e+00
      vertex 4.000000e+01 0.000000e+00 0.000000e+00
      vertex 4.000000e+01 1.600000e+02 1.500000e+01
    endloop
  endfacet
  facet normal 0.000000e+00 -9.334071e-02 9.956342e-01
    outer loop
      vertex 0.000000e+00 0.000000e+00 0.000000e+00
      vertex 4.000000e+01 1.600000e+02 1.500000e+01
      vertex 0.000000e+00 1.600000e+02 1.500000e+01
    endloop
  endfacet
endsolid wedge_40x160x15
